<?xml version="1.0" encoding="utf-8"?>
<!-- Generator: Adobe Illustrator 19.2.1, SVG Export Plug-In . SVG Version: 6.00 Build 0)  -->
<svg version="1.1" id="Layer_1" xmlns="http://www.w3.org/2000/svg" xmlns:xlink="http://www.w3.org/1999/xlink" x="0px" y="0px"
	 viewBox="0 0 248 84" style="enable-background:new 0 0 248 84;" xml:space="preserve">
<style type="text/css">
	.st0{fill:#FFFFFF;}
</style>
<g id="Layer_1_1_">
	<title>logo</title>
	<g>
		<path class="st0" d="M82.7,29.1l-0.1,0.1c-0.3,0.4-0.6,0.8-1,1.1c-0.4,0.4-0.9,0.7-1.4,1c-1,0.6-2.2,0.9-3.3,0.9
			c-3.9,0-7.1-3.2-7.1-7.1c0-0.8,0.1-1.5,0.4-2.2c0.3-1,0.9-1.9,1.6-2.7c0.1-0.1,0.1-0.1,0.2-0.2c1.3-1.3,3.1-2,4.9-2
			c3.9,0,7.1,3.2,7.1,7.1C84,26.5,83.6,27.9,82.7,29.1 M86.7,50.1c0,17-13.8,30.8-30.8,30.8S25.1,67.1,25.1,50.1
			s13.8-30.8,30.8-30.8c4.5,0,8.8,1,12.6,2.7c-0.3,0.9-0.5,2-0.5,3c0,4.9,4,8.9,8.9,8.9c1.6,0,3.1-0.4,4.4-1.2
			C84.9,37.9,86.7,43.9,86.7,50.1 M101.5,21.2c-0.2-0.4-0.7-0.6-1.1-0.4l-15,6.9c0.2-0.5,0.3-1,0.3-1.6c0,0,0.1,0,0.1-0.1l7.7-6.2
			c0.3-0.3,0.4-0.8,0.1-1.2c-0.3-0.3-0.7-0.4-1.1-0.2L85.8,24c-0.2-1.7-0.9-3.4-2.1-4.7l6.9-6.8c0.3-0.3,0.3-0.8,0-1.2
			c-0.3-0.3-0.8-0.3-1.1,0l-7,6.8c-1.3-1.1-2.9-1.7-4.6-1.9l5.4-6.8c0.3-0.4,0.2-0.9-0.1-1.1c-0.3-0.3-0.8-0.2-1.1,0.1l-6.3,7.8
			c-0.7,0.1-1.3,0.2-1.9,0.5L81,1.4c0.2-0.4,0-0.9-0.4-1.1s-0.9,0-1.1,0.4l-8,17.3c-0.4,0.3-0.8,0.6-1.1,1c-0.1,0.1-0.3,0.2-0.4,0.4
			c-4.4-2-9.3-3.1-14.2-3.1C37.2,16.3,22,31.4,22,50.1S37.2,84,55.9,84s33.9-15.2,33.9-33.9c0-6.9-2.1-13.7-6.1-19.4
			c0.1-0.1,0.2-0.2,0.3-0.3c0.1-0.2,0.3-0.3,0.4-0.5l0,0l16.7-7.7C101.5,22.1,101.7,21.6,101.5,21.2L101.5,21.2"/>
		<g>
			<path class="st0" d="M104.3,51.6h-4.8l-1.1,3.7h-1.8l4.5-14.3h1.5l4.6,14.3h-1.8L104.3,51.6z M99.9,50h3.9l-2-6.5L99.9,50z"/>
			<path class="st0" d="M111.1,55.3h-1.8V41h1.8V55.3z"/>
			<path class="st0" d="M118.6,49.5H116v5.8h-1.8V41h4c1.4,0,2.5,0.4,3.2,1.1c0.7,0.7,1.1,1.8,1.1,3.2c0,0.9-0.2,1.7-0.6,2.3
				c-0.4,0.7-0.9,1.2-1.7,1.5l2.8,6.1v0.1h-1.9L118.6,49.5z M116,48h2.2c0.4,0,0.8-0.1,1.1-0.2c0.3-0.1,0.6-0.3,0.8-0.6
				c0.2-0.2,0.4-0.5,0.5-0.8s0.2-0.7,0.2-1c0-0.4,0-0.8-0.1-1.1s-0.2-0.6-0.4-0.9c-0.2-0.2-0.5-0.4-0.8-0.6
				c-0.3-0.1-0.7-0.2-1.1-0.2H116V48z"/>
			<path class="st0" d="M128.8,52.6l3.3-11.6h2l-4.5,14.3H128L123.6,41h2L128.8,52.6z"/>
			<path class="st0" d="M137.9,55.3h-1.8V41h1.8V55.3z"/>
			<path class="st0" d="M145.4,49.5h-2.5v5.8h-1.8V41h4c1.4,0,2.5,0.4,3.2,1.1c0.7,0.7,1.1,1.8,1.1,3.2c0,0.9-0.2,1.7-0.6,2.3
				c-0.4,0.7-0.9,1.2-1.7,1.5l2.8,6.1v0.1H148L145.4,49.5z M142.9,48h2.2c0.4,0,0.8-0.1,1.1-0.2c0.3-0.1,0.6-0.3,0.8-0.6
				c0.2-0.2,0.4-0.5,0.5-0.8s0.2-0.7,0.2-1c0-0.4,0-0.8-0.1-1.1c-0.1-0.3-0.2-0.6-0.4-0.9c-0.2-0.2-0.5-0.4-0.8-0.6
				s-0.7-0.2-1.1-0.2h-2.2V48H142.9z"/>
			<path class="st0" d="M161.1,49.4c0,1-0.1,1.9-0.3,2.7s-0.5,1.4-1,1.9c-0.4,0.5-0.9,0.9-1.5,1.1c-0.6,0.3-1.3,0.4-2,0.4
				s-1.4-0.1-2-0.4c-0.6-0.3-1.1-0.6-1.5-1.1s-0.8-1.1-1-1.9s-0.3-1.6-0.3-2.7V47c0-1,0.1-1.9,0.3-2.7s0.6-1.4,1-1.9
				s0.9-0.9,1.5-1.2s1.2-0.4,2-0.4c0.7,0,1.4,0.1,2,0.4s1.1,0.6,1.5,1.2c0.4,0.5,0.7,1.2,1,1.9c0.2,0.8,0.3,1.7,0.3,2.7V49.4z
				 M159.3,46.9c0-0.8-0.1-1.5-0.2-2c-0.1-0.6-0.3-1-0.6-1.4s-0.6-0.6-0.9-0.8c-0.4-0.2-0.8-0.3-1.3-0.3s-0.9,0.1-1.3,0.3
				c-0.4,0.2-0.7,0.4-0.9,0.8c-0.3,0.4-0.5,0.8-0.6,1.4c-0.1,0.6-0.2,1.2-0.2,2v2.5c0,0.8,0.1,1.5,0.2,2c0.1,0.6,0.3,1,0.6,1.4
				s0.6,0.6,1,0.8s0.8,0.3,1.3,0.3s0.9-0.1,1.3-0.3c0.4-0.2,0.7-0.4,0.9-0.8c0.3-0.4,0.4-0.8,0.6-1.4c0.1-0.6,0.2-1.2,0.2-2v-2.5
				H159.3z"/>
			<path class="st0" d="M173.2,55.3h-1.8l-5.7-11v11h-1.8V41h1.8l5.8,11.1V41h1.8v14.3H173.2z"/>
			<path class="st0" d="M178.6,41l3.7,11.7L186,41h2.3v14.3h-1.8v-5.6l0.2-5.6L183,55.3h-1.4l-3.7-11.1l0.2,5.5v5.6h-1.8V41H178.6z"
				/>
			<path class="st0" d="M198.4,48.7h-5.1v5.1h5.9v1.5h-7.7V41h7.6v1.6h-5.8v4.6h5.1V48.7z"/>
			<path class="st0" d="M210.9,55.3h-1.8l-5.7-11v11h-1.8V41h1.8l5.8,11.1V41h1.8v14.3H210.9z"/>
			<path class="st0" d="M222.1,42.6h-3.8v12.8h-1.8V42.6h-3.8V41h9.3v1.6H222.1z"/>
		</g>
	</g>
</g>
<g id="Layer_2">
	<g>
		<g>
			<path class="st0" d="M70.3,46.3c0-3-2.5-5.5-5.5-5.5c-3,0-5.5,2.5-5.5,5.5c0,0.9,0.7,1.6,1.6,1.6c0.9,0,1.6-0.7,1.6-1.6
				c0-1.3,1.1-2.4,2.4-2.4c1.3,0,2.4,1.1,2.4,2.4c0,1.7-1.4,3.1-3.1,3.1H39.6c-0.9,0-1.6,0.7-1.6,1.6c0,0.9,0.7,1.6,1.6,1.6H64
				C67.5,52.6,70.3,49.8,70.3,46.3z"/>
			<path class="st0" d="M39.2,46.2H48c3,0,5.4-2.4,5.4-5.4c0-2.6-2.1-4.7-4.7-4.7S44,38.2,44,40.8c0,0.7,0.5,1.2,1.2,1.2
				s1.2-0.5,1.2-1.2c0-1.3,1-2.3,2.3-2.3s2.3,1,2.3,2.3c0,1.6-1.3,3-3,3h-8.8c-0.7,0-1.2,0.5-1.2,1.2S38.6,46.2,39.2,46.2z"/>
			<path class="st0" d="M68.7,55.3H45.9c-0.9,0-1.6,0.7-1.6,1.6c0,0.9,0.7,1.6,1.6,1.6h22.9c1.7,0,3.1,1.4,3.1,3.1
				c0,1.3-1.1,2.4-2.4,2.4s-2.4-1.1-2.4-2.4c0-0.9-0.7-1.6-1.6-1.6c-0.9,0-1.6,0.7-1.6,1.6c0,3,2.5,5.5,5.5,5.5s5.5-2.5,5.5-5.5
				C75,58.2,72.2,55.3,68.7,55.3z"/>
		</g>
	</g>
</g>
</svg>
